<svg width="36" height="28" viewBox="0 0 36 28" fill="none" xmlns="http://www.w3.org/2000/svg">
<path d="M34.25 0.25H1.75C1.05859 0.25 0.5 0.808594 0.5 1.5V26.5C0.5 27.1914 1.05859 27.75 1.75 27.75H34.25C34.9414 27.75 35.5 27.1914 35.5 26.5V1.5C35.5 0.808594 34.9414 0.25 34.25 0.25ZM32.6875 24.9375H3.3125V23.3789L8.72266 16.9609L14.5859 23.9141L23.707 13.1016L32.6875 23.75V24.9375ZM32.6875 19.8672L23.9453 9.5C23.8203 9.35156 23.5938 9.35156 23.4688 9.5L14.5859 20.0312L8.96094 13.3633C8.83594 13.2148 8.60938 13.2148 8.48438 13.3633L3.3125 19.4961V3.0625H32.6875V19.8672ZM9.875 11.8125C10.3264 11.8125 10.7734 11.7236 11.1905 11.5508C11.6075 11.3781 11.9865 11.1249 12.3057 10.8057C12.6249 10.4865 12.8781 10.1075 13.0508 9.69047C13.2236 9.27342 13.3125 8.82642 13.3125 8.375C13.3125 7.92358 13.2236 7.47658 13.0508 7.05953C12.8781 6.64247 12.6249 6.26352 12.3057 5.94432C11.9865 5.62512 11.6075 5.37191 11.1905 5.19916C10.7734 5.02641 10.3264 4.9375 9.875 4.9375C8.96332 4.9375 8.08898 5.29966 7.44432 5.94432C6.79966 6.58898 6.4375 7.46332 6.4375 8.375C6.4375 9.28668 6.79966 10.161 7.44432 10.8057C8.08898 11.4503 8.96332 11.8125 9.875 11.8125ZM9.875 7.28125C10.4805 7.28125 10.9688 7.76953 10.9688 8.375C10.9688 8.98047 10.4805 9.46875 9.875 9.46875C9.26953 9.46875 8.78125 8.98047 8.78125 8.375C8.78125 7.76953 9.26953 7.28125 9.875 7.28125Z" fill="#0E1820"/>
</svg>
