<svg width="38" height="50" viewBox="0 0 38 50" fill="none" xmlns="http://www.w3.org/2000/svg">
<path d="M-4.04545 17.5L-6.65909 11.625L-12 8.75L-6.65909 5.875L-4.04545 0L-1.43182 5.875L3.90909 8.75L-1.43182 11.625L-4.04545 17.5ZM28.9091 47.5L25.9545 40.75L19.8182 37.5L25.9545 34.25L28.9091 27.5L31.8636 34.25L38 37.5L31.8636 40.75L28.9091 47.5ZM13.7386 50C12.4129 50 11.1538 49.6975 9.96136 49.0925C8.76742 48.4892 7.73485 47.6458 6.86364 46.5625L-5.18182 31.25L-2.11364 27.875C-1.35606 27.0417 -0.446969 26.5625 0.613637 26.4375C1.67424 26.3125 2.65909 26.5833 3.56818 27.25L7.31818 30V10C7.31818 8.625 7.76364 7.44833 8.65455 6.47C9.54394 5.49 10.6136 5 11.8636 5C12.053 5 12.2424 5.01 12.4318 5.03C12.6212 5.05167 12.8106 5.10417 13 5.1875V5C13 3.625 13.4455 2.4475 14.3364 1.4675C15.2258 0.489166 16.2955 0 17.5455 0C18.4545 0 19.2689 0.26 19.9886 0.78C20.7083 1.30167 21.2576 1.97917 21.6364 2.8125C21.9015 2.72917 22.1576 2.65583 22.4045 2.5925C22.65 2.53083 22.9242 2.5 23.2273 2.5C24.4773 2.5 25.5477 2.98917 26.4386 3.9675C27.328 4.9475 27.7727 6.125 27.7727 7.5V7.6875C27.9621 7.60417 28.1515 7.55167 28.3409 7.53C28.5303 7.51 28.7197 7.5 28.9091 7.5C30.1591 7.5 31.2295 7.99 32.1205 8.97C33.0098 9.94833 33.4545 11.125 33.4545 12.5V21.25H30.0455V12.5C30.0455 12.1667 29.9318 11.875 29.7045 11.625C29.4773 11.375 29.2121 11.25 28.9091 11.25C28.6061 11.25 28.3409 11.375 28.1136 11.625C27.8864 11.875 27.7727 12.1667 27.7727 12.5V25H24.3636V7.5C24.3636 7.16667 24.25 6.875 24.0227 6.625C23.7955 6.375 23.5303 6.25 23.2273 6.25C22.9242 6.25 22.6591 6.375 22.4318 6.625C22.2045 6.875 22.0909 7.16667 22.0909 7.5V25H18.6818V5C18.6818 4.66667 18.5682 4.375 18.3409 4.125C18.1136 3.875 17.8485 3.75 17.5455 3.75C17.2424 3.75 16.9773 3.875 16.75 4.125C16.5227 4.375 16.4091 4.66667 16.4091 5V25H13V10C13 9.66667 12.8864 9.385 12.6591 9.155C12.4318 8.92667 12.1667 8.8125 11.8636 8.8125C11.5606 8.8125 11.2955 8.9375 11.0682 9.1875C10.8409 9.4375 10.7273 9.72917 10.7273 10.0625V37.0625L1.69318 30.4375C1.39015 30.2292 1.10606 30.1667 0.840909 30.25C0.575758 30.3333 0.386364 30.4375 0.272727 30.5625L-0.522727 31.4375L9.47727 44.125C10.0076 44.8333 10.6424 45.365 11.3818 45.72C12.1197 46.0733 12.9053 46.25 13.7386 46.25H21.5227L23.2273 50H13.7386Z" fill="white"/>
</svg>
