<svg width="19" height="13" viewBox="0 0 19 13" fill="none" xmlns="http://www.w3.org/2000/svg">
<path d="M10.0621 12.0947L17.7239 2.80723C17.851 2.65469 17.9519 2.4732 18.0207 2.27324C18.0896 2.07329 18.125 1.85881 18.125 1.64219C18.125 1.42558 18.0896 1.2111 18.0207 1.01114C17.9519 0.811187 17.851 0.629702 17.7239 0.47716C17.4698 0.171542 17.1261 0 16.7678 0C16.4096 0 16.0659 0.171542 15.8118 0.47716L9.03145 8.59959L2.31888 0.47716C2.06481 0.171542 1.72111 0 1.36285 0C1.0046 0 0.660898 0.171542 0.40682 0.47716C0.278688 0.629131 0.176752 0.810359 0.106918 1.01034C0.0370846 1.21033 0.000745773 1.42509 0 1.64219C0.000745773 1.8593 0.0370846 2.07406 0.106918 2.27405C0.176752 2.47403 0.278688 2.65526 0.40682 2.80723L8.06863 12.0947C8.19562 12.2613 8.34974 12.3942 8.52128 12.4851C8.69283 12.576 8.87807 12.623 9.06535 12.623C9.25262 12.623 9.43787 12.576 9.60941 12.4851C9.78096 12.3942 9.93508 12.2613 10.0621 12.0947Z" fill="#991712"/>
</svg>
