<svg width="36" height="34" viewBox="0 0 36 34" fill="none" xmlns="http://www.w3.org/2000/svg">
<path d="M32.3333 25.3333C33.2889 25.3333 34.0945 25.6666 34.75 26.3333C35.4056 27 35.7278 27.7778 35.7167 28.6666L22.3333 33.6666L10.6667 30.3333V15.3333H13.9167L26.0333 19.8166C26.9 20.1611 27.3333 20.7833 27.3333 21.6833C27.3333 22.2055 27.1445 22.6611 26.7667 23.05C26.3889 23.4389 25.9111 23.6444 25.3333 23.6666H20.6667L17.75 22.55L17.2 24.1166L20.6667 25.3333H32.3333ZM25.6667 2.38331C26.8445 1.01665 28.3445 0.333313 30.1667 0.333313C31.6778 0.333313 32.9556 0.888869 34 1.99998C35.0445 3.11109 35.6 4.38887 35.6667 5.83331C35.6667 6.97776 35.1111 8.34442 34 9.93331C32.8889 11.5222 31.7945 12.85 30.7167 13.9166C29.6389 14.9833 27.9556 16.5666 25.6667 18.6666C23.3556 16.5666 21.6556 14.9833 20.5667 13.9166C19.4778 12.85 18.3833 11.5222 17.2833 9.93331C16.1833 8.34442 15.6445 6.97776 15.6667 5.83331C15.6667 4.3222 16.2056 3.04442 17.2833 1.99998C18.3611 0.955535 19.6611 0.39998 21.1833 0.333313C22.9611 0.333313 24.4556 1.01665 25.6667 2.38331ZM0.640015 15.3333H7.33335V33.6666H0.640015V15.3333Z" fill="white"/>
</svg>
